<svg width="192" height="133" viewBox="0 0 192 133" fill="none" xmlns="http://www.w3.org/2000/svg">
<ellipse opacity="0.1" cx="96" cy="95.5922" rx="82.8945" ry="21.9077" fill="white" style="fill:white;fill-opacity:1;"></ellipse>
<ellipse cx="96.1007" cy="94.7126" rx="78.4225" ry="20.2135" fill="#008FD7" style="fill:#008FD7;fill:color(display-p3 0.0000 0.5609 0.8413);fill-opacity:1;"></ellipse>
<ellipse opacity="0.1" cx="97.6652" cy="92.287" rx="61.3385" ry="16.3661" fill="white" style="fill:white;fill-opacity:1;"></ellipse>
<ellipse cx="97.6652" cy="91.4506" rx="59.3142" ry="13.9643" fill="#008FD7" style="fill:#008FD7;fill:color(display-p3 0.0000 0.5609 0.8413);fill-opacity:1;"></ellipse>
<ellipse opacity="0.1" cx="97.6654" cy="89.5919" rx="47.2826" ry="10.9913" fill="white" style="fill:white;fill-opacity:1;"></ellipse>
<ellipse cx="97.6653" cy="88.6668" rx="37.3962" ry="9.23226" fill="#008FD7" style="fill:#008FD7;fill:color(display-p3 0.0000 0.5609 0.8413);fill-opacity:1;"></ellipse>
<ellipse opacity="0.1" cx="97.6658" cy="87.6265" rx="33.7678" ry="6.3926" fill="white" style="fill:white;fill-opacity:1;"></ellipse>
<path d="M123.644 88.0258C126.07 85.0183 126.665 83.0069 123.644 77.6854C108.277 62.659 85.0319 51.6642 70.748 80.0516C69.5853 82.3624 67.8667 84.613 69.7261 88.0258C69.7261 91.0793 123.644 91.8145 123.644 88.0258Z" fill="#717171" style="fill:#717171;fill:color(display-p3 0.4439 0.4439 0.4439);fill-opacity:1;"></path>
<path d="M95.2783 58.7344C95.2783 58.7344 94.9625 61.8496 93.87 62.1739C92.7775 62.4981 84.738 65.1312 84.738 65.1312C84.738 65.1312 84.1631 65.6139 84.9172 65.5064C85.6714 65.399 92.0916 62.8417 92.2824 63.4337C92.4733 64.0256 86.7572 66.6794 87.0437 67.2665C87.215 67.6174 92.7135 65.6497 92.7135 65.6497C92.7135 65.6497 95.1503 63.3991 95.5392 63.2199C95.9282 63.0408 98.6789 63.756 98.6789 63.756C98.6789 63.756 98.885 63.6972 98.8582 63.6219C98.8313 63.5466 96.8195 62.1386 96.7701 61.9814C96.7207 61.8241 97.0792 59.1406 97.228 59.052C97.3767 58.9633 97.9906 58.0696 97.9906 58.0696L94.971 57.6641" fill="#5D5757" style="fill:#5D5757;fill:color(display-p3 0.3647 0.3412 0.3412);fill-opacity:1;"></path>
<path d="M79.4832 25.8489C79.4832 23.9303 79.0077 20.8855 83.8776 20.6712C86.5858 20.2102 90.9099 24.5989 91.3227 27.9898C91.7354 31.3806 90.6362 31.0677 90.6362 34.7087C90.6362 35.8374 90.8569 37.2356 91.3226 37.5447C91.7884 37.8537 95.4336 37.1597 98.38 38.0929C102.857 39.5112 117.701 51.1928 119.471 54.1463C126.949 57.7694 133.553 60.5757 133.553 60.5757L118.675 55.2317L129.475 60.3146C129.475 60.3146 118.888 57.7922 117.051 57.6763C115.214 57.5603 89.9613 64.9562 80.7348 49.7748C75.5229 41.1996 81.6981 35.8757 83.4996 30.3672C83.9062 29.1237 81.4981 29.5202 81.4981 29.5202C81.4981 29.5202 74.691 30.7272 74.6295 30.6398C74.5679 30.5524 74.3265 30.5894 74.5228 30.3678C74.7191 30.1462 79.4826 25.8489 79.4826 25.8489H79.4832Z" fill="url(#paint0_linear_12051_5697)"></path>
<path d="M112.064 56.0653C113.02 55.6965 113.213 55.4928 113.37 55.1598C113.248 54.886 112.359 54.7273 111.824 54.6797C111.35 54.835 111.582 55.9966 112.064 56.0653Z" fill="white" style="fill:white;fill-opacity:1;"></path>
<path d="M120.458 51.6042C114.974 48.0938 107.148 51.1264 104.008 51.1264C103.739 48.1636 101.874 46.8196 97.7288 44.5737C107.65 44.6366 116.431 47.7818 120.458 51.6042Z" fill="black" style="fill:black;fill-opacity:1;"></path>
<path d="M89.92 38.8619C90.4821 38.7431 91.3451 37.7303 91.3226 37.7157C91.3226 37.7157 92.4456 32.5556 92.097 29.8057C91.6843 26.5497 87.0762 20.5302 83.8775 20.6714C79.007 20.8863 79.4831 23.9305 79.4831 25.849C79.4831 25.849 74.7196 30.147 74.5233 30.368C74.327 30.5896 74.5684 30.5525 74.6293 30.64C74.6909 30.7274 81.498 29.5204 81.498 29.5204C81.498 29.5204 83.9061 29.1245 83.4995 30.3679C82.7204 32.7503 80.3976 37.2115 79.3026 39.7262L89.92 38.8619Z" fill="#15151E" style="fill:#15151E;fill:color(display-p3 0.0824 0.0824 0.1176);fill-opacity:1;"></path>
<path d="M79.4831 25.8486C79.4831 25.8486 74.7196 30.1466 74.5233 30.3676C74.327 30.5892 74.5684 30.5521 74.6294 30.6396C74.6909 30.727 81.498 29.52 81.498 29.52C81.498 29.52 81.8577 29.4611 82.2753 29.4599L79.4831 25.8486Z" fill="#E7E5EF" style="fill:#E7E5EF;fill:color(display-p3 0.9059 0.8980 0.9373);fill-opacity:1;"></path>
<path d="M83.5505 27.5433C83.3734 29.5725 79.4917 27.4769 79.4917 27.4769L79.6377 25.7756C80.3169 25.538 79.913 22.7776 80.9485 22.5202C83.1546 20.2699 85.2962 21.3175 87.3506 22.3225L87.3841 22.3389C84.8934 21.1206 83.1504 20.7454 81.2998 22.6444C82.0058 23.8963 83.4213 27.2278 83.5505 27.5433Z" fill="white" style="fill:white;fill-opacity:1;"></path>
<path d="M90.1094 26.334L90.1825 32.8522C90.1825 32.8522 91.8262 26.9982 90.1094 26.334Z" fill="white" style="fill:white;fill-opacity:1;"></path>
<path d="M78.2581 39.4352C78.2581 39.4352 81.1595 37.6381 82.3282 37.5677C83.4969 37.4972 91.7229 36.9976 91.7229 36.9976C91.7229 36.9976 90.8261 38.5682 89.3057 38.5682C87.7852 38.5682 78.1935 39.3721 78.2581 39.4352Z" fill="white" style="fill:white;fill-opacity:1;"></path>
<path d="M81.299 48.0239C81.299 48.0239 82.9737 49.7955 83.37 50.1902C84.8817 50.5177 89.344 41.17 89.344 41.17C89.344 41.17 89.3123 40.8506 89.0063 40.9551C88.7002 41.0595 80.4877 46.8467 81.299 48.0239Z" fill="black" style="fill:black;fill-opacity:1;"></path>
<path d="M81.3025 49.2926C81.4757 49.4651 82.089 50.2689 82.242 50.4419C82.395 50.615 89.6859 40.9014 89.7877 40.6829C89.8895 40.4643 89.6219 40.4959 89.5463 40.5365C89.5463 40.5365 80.7648 48.7565 81.3025 49.292V49.2926Z" fill="white" style="fill:white;fill-opacity:1;"></path>
<path d="M88.9577 43.665C88.9577 43.665 88.498 50.0952 88.4846 50.3435C88.4712 50.5918 88.645 50.9968 88.7785 51.0909C88.7785 51.0909 102.264 56.6334 102.81 56.8332C103.356 57.0329 104.732 56.903 104.868 55.6432C104.868 55.6432 105.29 52.0429 105.239 51.9312C100.018 40.3829 89.0339 42.2443 88.9577 43.665Z" fill="#81381F" style="fill:#81381F;fill:color(display-p3 0.5059 0.2196 0.1216);fill-opacity:1;"></path>
<path d="M82.1353 23.8401C82.1353 23.4169 82.4797 23.0732 82.9046 23.0732C83.3296 23.0732 84.4056 23.4163 84.4056 23.8401C84.4056 24.2638 83.3296 24.6069 82.9046 24.6069C82.4797 24.6069 82.1353 24.2638 82.1353 23.8401Z" fill="#171A1E" style="fill:#171A1E;fill:color(display-p3 0.0902 0.1020 0.1176);fill-opacity:1;"></path>
<path opacity="0.5" d="M82.3257 23.8466C82.3257 23.538 82.5772 23.2876 82.887 23.2876C83.1968 23.2876 83.9801 23.538 83.9801 23.8466C83.9801 24.1551 83.1968 24.4056 82.887 24.4056C82.5772 24.4056 82.3257 24.1551 82.3257 23.8466Z" fill="white" style="fill:white;fill-opacity:1;"></path>
<path d="M82.4009 23.8465C82.4009 23.5661 82.6295 23.3384 82.9112 23.3384C83.1928 23.3384 83.9049 23.5661 83.9049 23.8465C83.9049 24.127 83.1928 24.3547 82.9112 24.3547C82.6295 24.3547 82.4009 24.127 82.4009 23.8465Z" fill="black" style="fill:black;fill-opacity:1;"></path>
<path d="M82.2754 29.4599C81.8578 29.4611 81.4981 29.52 81.4981 29.52C81.4981 29.52 80.9415 29.5463 80.0654 29.7449C79.7862 28.4492 79.2059 27.7061 77.8701 27.2866C78.9193 26.4845 79.4832 25.8486 79.4832 25.8486L82.2754 29.4599Z" fill="#AAA7C1" style="fill:#AAA7C1;fill:color(display-p3 0.6667 0.6549 0.7569);fill-opacity:1;"></path>
<path d="M88.9045 25.938C89.2601 25.938 89.5483 25.651 89.5483 25.2969C89.5483 24.9428 89.2601 24.6558 88.9045 24.6558C88.549 24.6558 88.2607 24.9428 88.2607 25.2969C88.2607 25.651 88.549 25.938 88.9045 25.938Z" fill="white" style="fill:white;fill-opacity:1;"></path>
<path d="M91.0386 40.4271L94.3363 41.7035H96.6012L102.73 44.3649C102.73 44.3649 103.946 42.9613 110.924 48.3755C110.924 48.3755 105.961 43.3443 96.9675 39.9897L91.0386 40.4271Z" fill="white" style="fill:white;fill-opacity:1;"></path>
<path d="M79.4774 24.1632C79.6035 22.6964 80.0208 22.0946 80.7446 21.0083C79.6521 22.7734 79.9698 23.6143 79.4774 24.1632Z" fill="white" style="fill:white;fill-opacity:1;"></path>
<path d="M78.9916 27.2266L77.8081 28.0654L78.0743 28.4379L79.2578 27.599L78.9916 27.2266Z" fill="#2D3D18" style="fill:#2D3D18;fill:color(display-p3 0.1765 0.2392 0.0941);fill-opacity:1;"></path>
<defs>
<linearGradient id="paint0_linear_12051_5697" x1="103.04" y1="48.7974" x2="103.04" y2="60.5757" gradientUnits="userSpaceOnUse">
<stop stop-color="#55596E" style="stop-color:#55596E;stop-color:color(display-p3 0.3333 0.3490 0.4314);stop-opacity:1;"></stop>
<stop offset="1" style="stop-color:black;stop-opacity:1;"></stop>
</linearGradient>
</defs>
</svg>